<svg width="200mm" height="200mm" viewBox="0 0 200 200" xmlns="http://www.w3.org/2000/svg"><rect style="opacity:1;fill:#172e61;fill-opacity:1;stroke:none;stroke-width:1.965;stroke-linecap:square;stroke-linejoin:round;stroke-miterlimit:4;stroke-dasharray:none;stroke-opacity:1;paint-order:markers fill stroke" width="201.303" height="202.991" y=".363" rx=".964" ry="3.011"/><text xml:space="preserve" style="font-size:10.5833px;line-height:1.25;font-family:'DejaVu Math TeX Gyre';-inkscape-font-specification:'DejaVu Math TeX Gyre';stroke-width:.264583" x="-92.437" y="8.229"/><path style="opacity:1;fill:#a00;fill-opacity:1;stroke-width:0;stroke-linecap:square;stroke-linejoin:round;paint-order:markers fill stroke" d="M189.2 50.799a69.977 74.643 0 0 0-69.98 74.642 69.977 74.643 0 0 0 69.98 74.643 69.977 74.643 0 0 0 69.976-74.643A69.977 74.643 0 0 0 189.199 50.8zm1.554 42.504a24.88 35.248 0 0 1 24.88 35.248 24.88 35.248 0 0 1-24.88 35.248 24.88 35.248 0 0 1-24.88-35.248 24.88 35.248 0 0 1 24.88-35.248z" transform="scale(.26458)"/><path style="fill:#a00;fill-opacity:1;stroke:#a00;stroke-width:.865;stroke-linecap:butt;stroke-linejoin:miter;stroke-miterlimit:4;stroke-dasharray:none;stroke-opacity:1" d="m69.243 15.731 14.222 36.28 9.798.1 13.715-36.594-12.122-.184-6.644 20.563-6.46-20.51z"/><path style="opacity:1;fill:#a00;fill-opacity:1;stroke:none;stroke-width:.999999px;stroke-linecap:butt;stroke-linejoin:miter;stroke-opacity:1" d="M472.398 52.645c-82.795-.231-103.227 190.248 59.98 138.4l-2.523-38.211c-.553.081-.945.155-1.105.213-4.363 1.578-57.187 22.702-69.342-11.92 1.714.35 82.12-.352 82.12-.352 1.027-.35 21.4-84.64-67.16-88.09-.661-.025-1.317-.039-1.97-.04zm4.711 41.34c.392-.003.792.005 1.2.02 20.018.803 19.758 15.942 20.257 15.888l-40.67.474s2.841-16.01 18.825-16.377c.129-.003.258-.005.388-.006zm77.809 57.08c-.467.015-.93.032-1.387.05l1.405.305c-.002-.125-.018-.23-.018-.356z" transform="scale(.26458)"/><path style="opacity:1;fill:#a00;fill-opacity:1;stroke:#a00;stroke-width:.999999px;stroke-linecap:butt;stroke-linejoin:miter;stroke-opacity:1" d="M622.45 56.08c-33.974-.14-57.815 12.654-57.815 12.654l1.715 126.832 41.605.35s-.935-98.607 0-101.148c19.478-2.718 41.916 2.54 41.916 2.54s1.65-.67 4.113-1.831l4.85-34.118c-.875-.261-1.781-.52-2.73-.775a131.287 131.287 0 0 0-33.655-4.504z" transform="scale(.26458)"/><path style="opacity:1;fill:#fff;fill-opacity:1;stroke:#b5172e;stroke-width:7.42677;stroke-linecap:butt;stroke-linejoin:miter;stroke-miterlimit:4;stroke-dasharray:none;stroke-opacity:1" d="M267.842 218.984s-82.573 79.07-145.75 205.664c-.734 1.471-1.433 2.889-2.133 4.307.25 1.545.329 3.272.404 5.127l1.92 47.166 140.758.541.959 71.399 75.852.431.193-71.074 33.603-.432-.576-63.73-32.068-1.404-.383-196.915zm1.344 85.766-3.073 114.605-74.699-.865z" transform="scale(.26458)"/><path style="opacity:1;fill:#fdf7f7;fill-opacity:1;stroke:#be162b;stroke-width:7.42677174;stroke-linecap:butt;stroke-linejoin:miter;stroke-miterlimit:4;stroke-dasharray:none;stroke-opacity:1" d="M523.693 210.79c-4.545-.012-7.25.459-7.367.85 0 0-113.297-15.878-120.402 168.721-7.105 184.6 123.668 181.467 123.668 181.467.725-2.396 116.534 8.121 122.705-169.476 5.68-163.48-90.825-181.497-118.604-181.563zm-6.798 63.9c6.278 3.41 43.54-8.5 45.902 120.037 1.784 97.091-37.317 100.54-41.67 100.671-15.948-1.035-41.96-5.715-48.941-106.357-8.262-119.095 44.71-114.352 44.71-114.352z" transform="scale(.26458)"/><path style="fill:#fff;stroke:#bb192e;stroke-width:1.065;stroke-linecap:butt;stroke-linejoin:miter;stroke-opacity:1;stroke-miterlimit:4;stroke-dasharray:none;fill-opacity:1" d="m21.981 157.815 6.542 24.017 4.906.032 4.497-13.831 4.907 13.996 4.906.098 6.308-23.885-5.432-.427-3.504 16.92-4.498-14.028-4.03-.395-5.081 14.817-3.505-17.478z"/><path style="opacity:1;fill:#fff;stroke:#bb192d;stroke-width:3.99118115;stroke-linecap:butt;stroke-linejoin:miter;stroke-opacity:1;stroke-miterlimit:4;stroke-dasharray:none" d="m316.559 583.707-22.53 2.166v99.897c.529.612 1.106 1.076 1.735 1.369 15.345 7.145 71.257 14.063 66.04-38.016-5.125-51.178-43.11-32.614-43.708-31.871zm9.26 51.98c6.5.1 11.635 2.233 13.17 16.848 2.721 25.89-18.945 19.105-23.01 19.446l.673-35.696s4.112-.675 9.167-.598z" transform="scale(.26458)"/><path style="fill:#fff;stroke:#bb182e;stroke-width:1.056;stroke-linecap:butt;stroke-linejoin:miter;stroke-opacity:1;stroke-miterlimit:4;stroke-dasharray:none" d="m131.042 154.908.102 24.618c-.375-.01 4.054 5.63 7.629 3.591 1.643-.938.58-4.917 1.043-4.935 0 0-3.001-.4-2.823-.887.178-.486-.255-22.917-.255-22.917z"/><path style="fill:#fff;stroke:#bc192e;stroke-width:1.056;stroke-linecap:butt;stroke-linejoin:miter;stroke-opacity:1;stroke-miterlimit:4;stroke-dasharray:none" d="m141.853 163.193.45 14.916s.636 3.56 5.723 4.905c5.086 1.344 10.835-1.072 10.835-1.072l-.265-18.406s-5.722-.515-5.696-.229c.027.286.106 14.33.106 14.33s-2.177 1.849-4.795-1.43c-.555-.695-.252-11.861-.795-12.885z"/><path style="opacity:1;fill:#fff;stroke:#bb182e;stroke-width:3.99118115;stroke-linecap:butt;stroke-linejoin:miter;stroke-opacity:1;stroke-miterlimit:4;stroke-dasharray:none" d="M451.996 591.777c-20.963.096-45.309 10.025-46.744 48.866-2.69 72.796 79.147 45.286 79.2 45.416 0 0-5.294-17.332-5.382-18.977-.072-1.351-21.307 8.883-37.06-.768-8.024-4.432-13.417-12.838-14.36-22.382-.463-4.298 1.158-13.957 2.377-17.099 5.418-9.177 12.045-12.934 22.898-14.435 6.06.002 13.48 2.17 18.237 6.153 3.112-.017 5.055.045 5.024-.074 0 0 3.324-11.01 6.152-17.79 1.138-2.727-13.512-8.987-30.342-8.91z" transform="scale(.26458)"/><path style="opacity:1;fill:#fff;stroke:#bb192d;stroke-width:1.056;stroke-linecap:butt;stroke-linejoin:miter;stroke-opacity:1;stroke-miterlimit:4;stroke-dasharray:none" d="m168.712 154.37-5.96.573v26.431c.14.162.292.285.458.363 4.06 1.89 18.854 3.72 17.474-10.059-1.357-13.54-11.407-8.629-11.565-8.432zm2.45 13.753c1.72.027 3.079.591 3.485 4.458.72 6.85-5.013 5.055-6.088 5.145l.178-9.445s1.088-.178 2.425-.158z"/><path style="opacity:1;fill:#fff;fill-opacity:1;stroke:#bd172e;stroke-width:3.99118;stroke-linecap:butt;stroke-linejoin:miter;stroke-miterlimit:4;stroke-dasharray:none;stroke-opacity:1" d="M245.248 615.924v.002c-42.086-.117-52.47 96.704 30.49 70.35l-1.283-19.422a3.913 3.913 0 0 0-.562.107c-2.218.802-29.068 11.54-35.247-6.059.872.179 41.743-.18 41.743-.18.522-.178 10.877-43.023-34.139-44.777-.336-.015-.67-.017-1.002-.021zm2.395 21.015c.199 0 .402.002.609.012 10.096.405 10.293 8.074 10.293 8.074l-20.668.243s1.444-8.14 9.568-8.327c.066-.002.131 0 .198-.002z" transform="scale(.26458)"/></svg>