<?xml version="1.0" encoding="UTF-8" standalone="no"?>
<!-- Created with Inkscape (http://www.inkscape.org/) -->

<svg
   width="200mm"
   height="200mm"
   viewBox="0 0 200 200"
   version="1.1"
   id="svg5"
   inkscape:version="1.1.1 (3bf5ae0d25, 2021-09-20)"
   sodipodi:docname="ovetr 40 web Club.svg"
   xmlns:inkscape="http://www.inkscape.org/namespaces/inkscape"
   xmlns:sodipodi="http://sodipodi.sourceforge.net/DTD/sodipodi-0.dtd"
   xmlns="http://www.w3.org/2000/svg"
   xmlns:svg="http://www.w3.org/2000/svg">
  <sodipodi:namedview
     id="namedview7"
     pagecolor="#ffffff"
     bordercolor="#666666"
     borderopacity="1.0"
     inkscape:pageshadow="2"
     inkscape:pageopacity="0.0"
     inkscape:pagecheckerboard="0"
     inkscape:document-units="mm"
     showgrid="false"
     width="200mm"
     inkscape:zoom="0.72902812"
     inkscape:cx="174.89037"
     inkscape:cy="394.36065"
     inkscape:window-width="1920"
     inkscape:window-height="1001"
     inkscape:window-x="-9"
     inkscape:window-y="-9"
     inkscape:window-maximized="1"
     inkscape:current-layer="layer1" />
  <defs
     id="defs2" />
  <g
     inkscape:label="Layer 1"
     inkscape:groupmode="layer"
     id="layer1">
    <rect
       style="opacity:1;fill:#172e61;fill-opacity:1;stroke:none;stroke-width:1.965;stroke-linecap:square;stroke-linejoin:round;stroke-miterlimit:4;stroke-dasharray:none;stroke-opacity:1;paint-order:markers fill stroke"
       id="rect122996"
       width="201.30252"
       height="202.99063"
       x="0"
       y="0.36327896"
       rx="0.964221"
       ry="3.010535" />
    <text
       xml:space="preserve"
       style="font-size:10.5833px;line-height:1.25;font-family:'DejaVu Math TeX Gyre';-inkscape-font-specification:'DejaVu Math TeX Gyre';stroke-width:0.264583"
       x="-92.437218"
       y="8.2288332"
       id="text64065"><tspan
         sodipodi:role="line"
         id="tspan64063"
         style="stroke-width:0.264583"
         x="-92.437218"
         y="8.2288332" /></text>
    <path
       id="path68149"
       style="opacity:1;fill:#aa0000;fill-opacity:1;stroke-width:0;stroke-linecap:square;stroke-linejoin:round;paint-order:markers fill stroke"
       d="M 189.19922 50.798828 A 69.977475 74.642634 0 0 0 119.2207 125.44141 A 69.977475 74.642634 0 0 0 189.19922 200.08398 A 69.977475 74.642634 0 0 0 259.17578 125.44141 A 69.977475 74.642634 0 0 0 189.19922 50.798828 z M 190.75391 93.302734 A 24.880879 35.247911 0 0 1 215.63477 128.55078 A 24.880879 35.247911 0 0 1 190.75391 163.79883 A 24.880879 35.247911 0 0 1 165.87305 128.55078 A 24.880879 35.247911 0 0 1 190.75391 93.302734 z "
       transform="scale(0.26458333)" />
    <path
       style="fill:#aa0000;fill-opacity:1;stroke:#aa0000;stroke-width:0.865;stroke-linecap:butt;stroke-linejoin:miter;stroke-miterlimit:4;stroke-dasharray:none;stroke-opacity:1"
       d="m 69.242847,15.731342 14.222018,36.279324 9.797736,0.101265 13.715819,-36.594977 -12.122105,-0.18424 -6.64421,20.563772 -6.460974,-20.510949 z"
       id="path69279"
       sodipodi:nodetypes="cccccccc" />
    <path
       id="path76955"
       style="opacity:1;fill:#aa0000;fill-opacity:1;stroke:none;stroke-width:0.999999px;stroke-linecap:butt;stroke-linejoin:miter;stroke-opacity:1"
       d="M 472.39844 52.644531 C 389.60309 52.413904 369.17111 242.89285 532.37891 191.04492 L 529.85547 152.83398 C 529.30169 152.9154 528.90995 152.98905 528.75 153.04688 C 524.38695 154.62459 471.56252 175.7492 459.4082 141.12695 C 461.12226 141.47758 541.52734 140.77539 541.52734 140.77539 C 542.55541 140.42427 562.92741 56.135594 474.36719 52.685547 C 473.70702 52.659846 473.05094 52.646345 472.39844 52.644531 z M 477.10938 93.984375 C 477.50114 93.982001 477.90112 93.989527 478.30859 94.005859 C 498.32728 94.808291 498.06706 109.94685 498.56641 109.89258 L 457.89648 110.36719 C 457.89648 110.36719 460.73696 94.357254 476.7207 93.990234 C 476.84961 93.987275 476.97879 93.985166 477.10938 93.984375 z M 554.91797 151.06445 C 554.45142 151.07999 553.98823 151.09691 553.53125 151.11523 L 554.93555 151.41992 C 554.93436 151.29485 554.91813 151.19059 554.91797 151.06445 z "
       transform="scale(0.26458333)" />
    <path
       id="path85916"
       style="opacity:1;fill:#aa0000;fill-opacity:1;stroke:#aa0000;stroke-width:0.999999px;stroke-linecap:butt;stroke-linejoin:miter;stroke-opacity:1"
       d="M 622.44922 56.080078 C 588.47591 55.940389 564.63477 68.734375 564.63477 68.734375 L 566.34961 195.56641 L 607.95508 195.91602 C 607.95508 195.91602 607.0201 97.309465 607.95508 94.767578 C 627.4331 92.050389 649.87109 97.308594 649.87109 97.308594 C 649.87109 97.308594 651.52122 96.637417 653.98438 95.476562 L 658.83398 61.359375 C 657.95918 61.097598 657.05251 60.839426 656.10352 60.583984 C 644.19755 57.379235 632.84921 56.12284 622.44922 56.080078 z "
       transform="scale(0.26458333)" />
    <path
       id="path90031"
       style="opacity:1;fill:#ffffff;fill-opacity:1;stroke:#b5172e;stroke-width:7.42677;stroke-linecap:butt;stroke-linejoin:miter;stroke-miterlimit:4;stroke-dasharray:none;stroke-opacity:1"
       d="m 267.8418,218.98438 c 0,0 -82.57249,79.069 -145.75,205.66406 -0.73406,1.4709 -1.43263,2.88839 -2.13282,4.30664 0.25058,1.54527 0.32878,3.27167 0.4043,5.12695 l 1.91992,47.16602 v 0 l 140.75782,0.54101 0.95898,71.39844 75.85156,0.43164 0.19336,-71.07422 33.60352,-0.43164 -0.57617,-63.73047 -32.06836,-1.40429 -0.38282,-196.91407 z m 1.34375,85.76562 -3.07227,114.60547 -74.69922,-0.86524 z"
       transform="scale(0.26458333)"
       sodipodi:nodetypes="cscsccccccccccccccc" />
    <path
       id="path91118"
       style="opacity:1;fill:#fdf7f7;fill-opacity:1;stroke:#be162b;stroke-width:7.42677174;stroke-linecap:butt;stroke-linejoin:miter;stroke-miterlimit:4;stroke-dasharray:none;stroke-opacity:1"
       d="m 523.69336,210.78906 c -4.54561,-0.0108 -7.25106,0.45964 -7.36719,0.85156 0,0 -113.29725,-15.8791 -120.40234,168.72071 -7.10506,184.5998 123.66797,181.46679 123.66797,181.46679 0.72506,-2.39606 116.53382,8.1211 122.70508,-169.47656 5.68064,-163.47872 -90.82481,-181.4967 -118.60352,-181.5625 z m -6.79805,63.90001 c 6.27812,3.41163 43.54031,-8.49955 45.90199,120.03826 1.78389,97.09103 -37.31692,100.53873 -41.67035,100.67111 -15.9484,-1.03533 -41.95975,-5.71504 -48.94108,-106.35703 -8.26137,-119.09502 44.70944,-114.35234 44.70944,-114.35234 z"
       transform="scale(0.26458333)"
       sodipodi:nodetypes="scscsscscsc" />
    <path
       style="fill:#ffffff;stroke:#bb192e;stroke-width:1.065;stroke-linecap:butt;stroke-linejoin:miter;stroke-opacity:1;stroke-miterlimit:4;stroke-dasharray:none;fill-opacity:1"
       d="m 21.981335,157.8153 6.541597,24.01627 4.906198,0.0329 4.497348,-13.83154 4.906198,13.99581 4.906197,0.0986 6.307969,-23.88486 -5.431862,-0.4271 -3.504427,16.91981 -4.497348,-14.02866 -4.030091,-0.39425 -5.081418,14.81716 -3.504427,-17.47833 z"
       id="path101752" />
    <path
       id="path101867"
       style="opacity:1;fill:#ffffff;stroke:#bb192d;stroke-width:3.99118115;stroke-linecap:butt;stroke-linejoin:miter;stroke-opacity:1;stroke-miterlimit:4;stroke-dasharray:none"
       d="m 316.55859,583.70703 -22.52929,2.16602 v 99.89648 c 0.52841,0.61243 1.10539,1.07625 1.73437,1.36914 15.3456,7.14568 71.25707,14.06344 66.04102,-38.01562 -5.12578,-51.17768 -43.11108,-32.61417 -43.70899,-31.8711 z m 9.2603,51.98019 c 6.49938,0.0999 11.63528,2.23301 13.17088,16.84766 2.7204,25.89068 -18.94591,19.1054 -23.01156,19.44596 l 0.67354,-35.69596 c 0,0 4.11206,-0.67538 9.16714,-0.59766 z"
       sodipodi:nodetypes="cccssccssccs"
       transform="scale(0.26458333)" />
    <path
       style="fill:#ffffff;stroke:#bb182e;stroke-width:1.056;stroke-linecap:butt;stroke-linejoin:miter;stroke-opacity:1;stroke-miterlimit:4;stroke-dasharray:none"
       d="m 131.04197,154.9077 0.10169,24.61873 c -0.37416,-0.01 4.05453,5.63004 7.62928,3.59053 1.64337,-0.9376 0.58079,-4.91728 1.04266,-4.9352 0,0 -3.00085,-0.40051 -2.82284,-0.88689 0.17802,-0.48637 -0.2543,-22.91645 -0.2543,-22.91645 z"
       id="path105811"
       sodipodi:nodetypes="ccscscc" />
    <path
       style="fill:#ffffff;stroke:#bc192e;stroke-width:1.056;stroke-linecap:butt;stroke-linejoin:miter;stroke-opacity:1;stroke-miterlimit:4;stroke-dasharray:none"
       d="m 141.85295,163.193 0.45035,14.91593 c 0,0 0.6358,3.56094 5.72224,4.90524 5.08643,1.34429 10.83516,-1.07258 10.83516,-1.07258 l -0.26492,-18.40536 c 0,0 -5.72224,-0.51484 -5.69575,-0.22882 0.0265,0.28602 0.10597,14.32959 0.10597,14.32959 0,0 -2.17704,1.84876 -4.79502,-1.4301 -0.55483,-0.69489 -0.25228,-11.86095 -0.79475,-12.88519 z"
       id="path107067"
       sodipodi:nodetypes="ccsccscscc" />
    <path
       id="path108134"
       style="opacity:1;fill:#ffffff;stroke:#bb182e;stroke-width:3.99118115;stroke-linecap:butt;stroke-linejoin:miter;stroke-opacity:1;stroke-miterlimit:4;stroke-dasharray:none"
       d="m 451.99609,591.77734 c -20.96307,0.0959 -45.30873,10.02475 -46.74414,48.86524 -2.6903,72.79642 79.14706,45.28638 79.19922,45.41601 0,0 -5.29317,-17.33152 -5.38086,-18.97656 -0.072,-1.35145 -21.30691,8.88279 -37.06054,-0.76758 -8.02394,-4.43259 -13.41682,-12.83879 -14.35938,-22.38281 -0.46292,-4.29721 1.15802,-13.95639 2.37689,-17.09825 5.41776,-9.17738 12.04493,-12.93441 22.89774,-14.43495 6.0601,0.002 13.48083,2.16893 18.23709,6.15234 3.11188,-0.0168 5.0552,0.0451 5.02344,-0.0742 0,0 3.32423,-11.00919 6.15234,-17.78906 1.13771,-2.72743 -13.51228,-8.98716 -30.3418,-8.91016 z"
       transform="scale(0.26458333)"
       sodipodi:nodetypes="sscsccccccsss" />
    <path
       id="path111846"
       style="opacity:1;fill:#ffffff;stroke:#bb192d;stroke-width:1.056;stroke-linecap:butt;stroke-linejoin:miter;stroke-opacity:1;stroke-miterlimit:4;stroke-dasharray:none"
       d="m 168.71218,154.37025 -5.96087,0.57309 v 26.43094 c 0.1398,0.16204 0.29246,0.28476 0.45888,0.36226 4.06019,1.89062 18.85343,3.72095 17.47335,-10.0583 -1.35619,-13.54076 -11.40647,-8.62917 -11.56467,-8.43257 z m 2.45012,13.75309 c 1.71963,0.0264 3.0785,0.59082 3.4848,4.45761 0.71977,6.85024 -5.01278,5.05497 -6.08848,5.14508 l 0.17821,-9.44456 c 0,0 1.08798,-0.17869 2.42547,-0.15813 z"
       sodipodi:nodetypes="cccssccssccs" />
    <path
       id="path111972"
       style="opacity:1;fill:#ffffff;fill-opacity:1;stroke:#bd172e;stroke-width:3.99118;stroke-linecap:butt;stroke-linejoin:miter;stroke-miterlimit:4;stroke-dasharray:none;stroke-opacity:1"
       d="m 245.24805,615.92383 v 0.002 c -42.08609,-0.11716 -52.47069,96.70463 30.49023,70.34961 l -1.2832,-19.42187 c -0.2815,0.0412 -0.4812,0.0779 -0.5625,0.10742 -2.21781,0.80198 -29.06788,11.5404 -35.2461,-6.0586 0.87129,0.1784 41.74219,-0.17968 41.74219,-0.17968 0.52259,-0.1784 10.87779,-43.02361 -34.13867,-44.77735 -0.33558,-0.0151 -0.67028,-0.0177 -1.00195,-0.0215 z m 2.39453,21.01562 c 0.19914,-0.001 0.40226,0.002 0.60937,0.0117 10.0963,0.4047 10.29297,8.07422 10.29297,8.07422 l -20.66797,0.24219 c 0,0 1.44359,-8.13962 9.56836,-8.32617 0.0655,-0.002 0.1309,-10e-5 0.19727,-0.002 z"
       transform="scale(0.26458333)"
       sodipodi:nodetypes="cccccccccccccsc" />
  </g>
</svg>
